<svg width="348" height="64" viewBox="0 0 348 64" fill="none" xmlns="http://www.w3.org/2000/svg">
<g filter="url(#filter0_dd_3001_24781)">
<rect x="3" y="3" width="342" height="56" rx="12" fill="#FEE500"/>
<path fill-rule="evenodd" clip-rule="evenodd" d="M47.0001 19.7969C40.3723 19.7969 35 23.9475 35 29.0666C35 32.2503 37.0779 35.0569 40.2421 36.7262L38.9107 41.5896C38.7931 42.0194 39.2846 42.3619 39.662 42.1129L45.4978 38.2612C45.9903 38.3087 46.4908 38.3365 47.0001 38.3365C53.6274 38.3365 59 34.186 59 29.0666C59 23.9475 53.6274 19.7969 47.0001 19.7969Z" fill="black"/>
<path d="M132.766 23.8203C132.756 29.1523 131.301 33.7324 124.797 36.9648L123.605 35.3242C126.662 33.8203 128.488 32.0527 129.514 29.9629L124.016 30.4805L123.742 28.6055L130.168 28.2051C130.393 27.375 130.539 26.5059 130.607 25.5781H124.66V23.8203H132.766ZM135.246 39.6992V22.082H137.414V28.9961H140.031V30.7734H137.414V39.6992H135.246ZM150.051 23.8203C150.041 29.1523 148.586 33.7324 142.082 36.9648L140.891 35.3242C143.947 33.8203 145.773 32.0527 146.799 29.9629L141.301 30.4805L141.027 28.6055L147.453 28.2051C147.678 27.375 147.824 26.5059 147.893 25.5781H141.945V23.8203H150.051ZM152.531 39.6992V22.082H154.699V28.9961H157.316V30.7734H154.699V39.6992H152.531ZM166.184 23.0781C169.973 23.0879 172.775 24.9727 172.766 27.8438C172.775 30.4902 170.5 32.2578 167.258 32.5801V35.8125H174.289V37.5898H158.156V35.8125H165.109V32.5801C161.906 32.2578 159.631 30.4902 159.641 27.8438C159.631 24.9727 162.424 23.0879 166.184 23.0781ZM161.77 27.8438C161.76 29.748 163.605 30.8906 166.184 30.8906C168.801 30.8906 170.637 29.748 170.637 27.8438C170.637 25.998 168.801 24.8262 166.184 24.8359C163.605 24.8262 161.76 25.998 161.77 27.8438ZM196.32 35.8906V37.6875H180.188V35.8906H187.141V33.0195H182.102V27.2383H192.258V25.0508H182.062V23.293H194.406V28.957H184.27V31.2422H194.816V33.0195H189.289V35.8906H196.32ZM211.516 23.8008V25.793C211.516 28.1562 211.516 30.5879 210.871 34.3086L208.664 34.1133C209.348 30.6465 209.348 28.0879 209.348 25.793V25.5586H199.172V23.8008H211.516ZM197.473 37.3164V35.5391H213.566V37.3164H197.473ZM229.465 22.1016V34.8555H227.277V22.1016H229.465ZM215.07 27.668C215.07 25.0996 217.15 23.2637 219.836 23.2539C222.521 23.2637 224.592 25.0996 224.582 27.668C224.592 30.2754 222.521 32.1016 219.836 32.1016C217.15 32.1016 215.07 30.2754 215.07 27.668ZM217.199 27.668C217.189 29.2305 218.322 30.207 219.836 30.207C221.311 30.207 222.453 29.2305 222.453 27.668C222.453 26.1445 221.311 25.1484 219.836 25.1484C218.322 25.1484 217.189 26.1445 217.199 27.668ZM217.785 39.3867V33.5664H219.973V37.6289H229.953V39.3867H217.785Z" fill="black" fill-opacity="0.85"/>
</g>
<defs>
<filter id="filter0_dd_3001_24781" x="0" y="0" width="348" height="64" filterUnits="userSpaceOnUse" color-interpolation-filters="sRGB">
<feFlood flood-opacity="0" result="BackgroundImageFix"/>
<feColorMatrix in="SourceAlpha" type="matrix" values="0 0 0 0 0 0 0 0 0 0 0 0 0 0 0 0 0 0 127 0" result="hardAlpha"/>
<feOffset dy="2"/>
<feGaussianBlur stdDeviation="1.5"/>
<feColorMatrix type="matrix" values="0 0 0 0 0 0 0 0 0 0 0 0 0 0 0 0 0 0 0.168 0"/>
<feBlend mode="normal" in2="BackgroundImageFix" result="effect1_dropShadow_3001_24781"/>
<feColorMatrix in="SourceAlpha" type="matrix" values="0 0 0 0 0 0 0 0 0 0 0 0 0 0 0 0 0 0 127 0" result="hardAlpha"/>
<feOffset/>
<feGaussianBlur stdDeviation="1.5"/>
<feColorMatrix type="matrix" values="0 0 0 0 0 0 0 0 0 0 0 0 0 0 0 0 0 0 0.084 0"/>
<feBlend mode="normal" in2="effect1_dropShadow_3001_24781" result="effect2_dropShadow_3001_24781"/>
<feBlend mode="normal" in="SourceGraphic" in2="effect2_dropShadow_3001_24781" result="shape"/>
</filter>
</defs>
</svg>
